<mxfile host="app.diagrams.net" modified="2023-05-29T11:18:52.861Z" agent="Mozilla/5.0 (Windows NT 10.0; Win64; x64) AppleWebKit/537.36 (KHTML, like Gecko) Chrome/111.0.0.0 Safari/537.36" etag="GLAXjAHCumMpRRrCFwmL" version="21.3.2" type="github">
  <diagram name="第 1 页" id="HxWQB5qU6G44GNeaxOZG">
    <mxGraphModel dx="1434" dy="764" grid="0" gridSize="10" guides="1" tooltips="1" connect="1" arrows="1" fold="1" page="1" pageScale="1" pageWidth="850" pageHeight="1100" math="0" shadow="0">
      <root>
        <mxCell id="0" />
        <mxCell id="1" parent="0" />
        <mxCell id="UodUnR3Mqy-07DbHBFqT-49" value="" style="rounded=0;whiteSpace=wrap;html=1;fontSize=15;fontStyle=1;strokeWidth=2;" parent="1" vertex="1">
          <mxGeometry x="263" y="55" width="544" height="650" as="geometry" />
        </mxCell>
        <mxCell id="UodUnR3Mqy-07DbHBFqT-9" style="edgeStyle=orthogonalEdgeStyle;rounded=0;orthogonalLoop=1;jettySize=auto;html=1;entryX=0.5;entryY=0;entryDx=0;entryDy=0;fontSize=15;fontStyle=1" parent="1" source="UodUnR3Mqy-07DbHBFqT-1" target="UodUnR3Mqy-07DbHBFqT-2" edge="1">
          <mxGeometry relative="1" as="geometry" />
        </mxCell>
        <mxCell id="UodUnR3Mqy-07DbHBFqT-1" value="开始" style="rounded=1;whiteSpace=wrap;html=1;fontSize=15;fontStyle=1;strokeWidth=2;" parent="1" vertex="1">
          <mxGeometry x="43" y="95" width="120" height="60" as="geometry" />
        </mxCell>
        <mxCell id="UodUnR3Mqy-07DbHBFqT-14" style="edgeStyle=orthogonalEdgeStyle;rounded=0;orthogonalLoop=1;jettySize=auto;html=1;entryX=0.5;entryY=0;entryDx=0;entryDy=0;fontSize=15;dashed=1;fontStyle=1;strokeWidth=2;" parent="1" source="UodUnR3Mqy-07DbHBFqT-2" target="UodUnR3Mqy-07DbHBFqT-13" edge="1">
          <mxGeometry relative="1" as="geometry" />
        </mxCell>
        <mxCell id="UodUnR3Mqy-07DbHBFqT-57" style="edgeStyle=orthogonalEdgeStyle;rounded=0;orthogonalLoop=1;jettySize=auto;html=1;entryX=0.5;entryY=0;entryDx=0;entryDy=0;fontSize=15;fontStyle=1" parent="1" source="UodUnR3Mqy-07DbHBFqT-2" target="UodUnR3Mqy-07DbHBFqT-5" edge="1">
          <mxGeometry relative="1" as="geometry">
            <Array as="points">
              <mxPoint x="248" y="225" />
              <mxPoint x="248" y="113" />
              <mxPoint x="500" y="113" />
            </Array>
          </mxGeometry>
        </mxCell>
        <mxCell id="UodUnR3Mqy-07DbHBFqT-2" value="用户请求" style="rounded=0;whiteSpace=wrap;html=1;fontSize=15;fontStyle=1;strokeWidth=2;" parent="1" vertex="1">
          <mxGeometry x="43" y="195" width="120" height="60" as="geometry" />
        </mxCell>
        <mxCell id="UodUnR3Mqy-07DbHBFqT-4" value="权限管理模块" style="text;html=1;strokeColor=none;fillColor=none;align=center;verticalAlign=middle;whiteSpace=wrap;rounded=0;fontSize=17;fontStyle=1" parent="1" vertex="1">
          <mxGeometry x="714" y="67" width="74" height="30" as="geometry" />
        </mxCell>
        <mxCell id="UodUnR3Mqy-07DbHBFqT-7" style="edgeStyle=orthogonalEdgeStyle;rounded=0;orthogonalLoop=1;jettySize=auto;html=1;entryX=1;entryY=0.5;entryDx=0;entryDy=0;entryPerimeter=0;fontSize=15;fontStyle=1" parent="1" source="UodUnR3Mqy-07DbHBFqT-5" target="UodUnR3Mqy-07DbHBFqT-6" edge="1">
          <mxGeometry relative="1" as="geometry" />
        </mxCell>
        <mxCell id="UodUnR3Mqy-07DbHBFqT-32" style="edgeStyle=orthogonalEdgeStyle;rounded=0;orthogonalLoop=1;jettySize=auto;html=1;entryX=0.5;entryY=0;entryDx=0;entryDy=0;fontSize=15;fontStyle=1;strokeWidth=2;" parent="1" source="UodUnR3Mqy-07DbHBFqT-5" target="UodUnR3Mqy-07DbHBFqT-24" edge="1">
          <mxGeometry relative="1" as="geometry" />
        </mxCell>
        <mxCell id="UodUnR3Mqy-07DbHBFqT-40" value="MCD用户角色&lt;br style=&quot;font-size: 15px;&quot;&gt;权限判断" style="edgeLabel;html=1;align=center;verticalAlign=middle;resizable=0;points=[];fontSize=15;fontStyle=1" parent="UodUnR3Mqy-07DbHBFqT-32" vertex="1" connectable="0">
          <mxGeometry x="-0.1545" y="1" relative="1" as="geometry">
            <mxPoint as="offset" />
          </mxGeometry>
        </mxCell>
        <mxCell id="UodUnR3Mqy-07DbHBFqT-33" style="edgeStyle=orthogonalEdgeStyle;rounded=0;orthogonalLoop=1;jettySize=auto;html=1;fontSize=15;fontStyle=1;strokeWidth=2;" parent="1" source="UodUnR3Mqy-07DbHBFqT-5" target="UodUnR3Mqy-07DbHBFqT-50" edge="1">
          <mxGeometry relative="1" as="geometry">
            <mxPoint x="653" y="215" as="targetPoint" />
          </mxGeometry>
        </mxCell>
        <mxCell id="UodUnR3Mqy-07DbHBFqT-41" value="support-e用户角色&lt;br style=&quot;font-size: 15px;&quot;&gt;权限判断" style="edgeLabel;html=1;align=center;verticalAlign=middle;resizable=0;points=[];fontSize=15;fontStyle=1" parent="UodUnR3Mqy-07DbHBFqT-33" vertex="1" connectable="0">
          <mxGeometry x="0.4286" y="1" relative="1" as="geometry">
            <mxPoint x="2" y="-26" as="offset" />
          </mxGeometry>
        </mxCell>
        <mxCell id="UodUnR3Mqy-07DbHBFqT-5" value="请求用户数据" style="rounded=0;whiteSpace=wrap;html=1;fontSize=15;fontStyle=1;strokeWidth=2;" parent="1" vertex="1">
          <mxGeometry x="440" y="133" width="120" height="60" as="geometry" />
        </mxCell>
        <mxCell id="UodUnR3Mqy-07DbHBFqT-8" style="edgeStyle=orthogonalEdgeStyle;rounded=0;orthogonalLoop=1;jettySize=auto;html=1;fontSize=15;entryX=0;entryY=0.75;entryDx=0;entryDy=0;exitX=1;exitY=0.625;exitDx=0;exitDy=0;exitPerimeter=0;fontStyle=1" parent="1" source="UodUnR3Mqy-07DbHBFqT-6" target="UodUnR3Mqy-07DbHBFqT-5" edge="1">
          <mxGeometry relative="1" as="geometry">
            <mxPoint x="351" y="173" as="sourcePoint" />
            <mxPoint x="160" y="325" as="targetPoint" />
          </mxGeometry>
        </mxCell>
        <mxCell id="UodUnR3Mqy-07DbHBFqT-56" value="用户完&lt;br style=&quot;font-size: 15px;&quot;&gt;整信息" style="edgeLabel;html=1;align=center;verticalAlign=middle;resizable=0;points=[];fontSize=15;fontStyle=1" parent="UodUnR3Mqy-07DbHBFqT-8" vertex="1" connectable="0">
          <mxGeometry x="-0.3226" y="1" relative="1" as="geometry">
            <mxPoint x="10" y="16" as="offset" />
          </mxGeometry>
        </mxCell>
        <mxCell id="UodUnR3Mqy-07DbHBFqT-6" value="用户数据库" style="shape=cylinder3;whiteSpace=wrap;html=1;boundedLbl=1;backgroundOutline=1;size=15;fontSize=15;fontStyle=1;strokeWidth=2;" parent="1" vertex="1">
          <mxGeometry x="287" y="123" width="60" height="80" as="geometry" />
        </mxCell>
        <mxCell id="UodUnR3Mqy-07DbHBFqT-16" style="edgeStyle=orthogonalEdgeStyle;rounded=0;orthogonalLoop=1;jettySize=auto;html=1;entryX=1;entryY=0.5;entryDx=0;entryDy=0;fontSize=15;fontStyle=1;strokeWidth=2;" parent="1" source="UodUnR3Mqy-07DbHBFqT-11" target="UodUnR3Mqy-07DbHBFqT-13" edge="1">
          <mxGeometry relative="1" as="geometry">
            <Array as="points">
              <mxPoint x="311" y="636" />
              <mxPoint x="311" y="325" />
            </Array>
          </mxGeometry>
        </mxCell>
        <mxCell id="UodUnR3Mqy-07DbHBFqT-20" value="返回限制参数，在生成召回&lt;br style=&quot;font-size: 15px;&quot;&gt;语句时添加过滤条件" style="edgeLabel;html=1;align=center;verticalAlign=middle;resizable=0;points=[];fontSize=15;fontStyle=1" parent="UodUnR3Mqy-07DbHBFqT-16" vertex="1" connectable="0">
          <mxGeometry x="-0.4" relative="1" as="geometry">
            <mxPoint y="-77" as="offset" />
          </mxGeometry>
        </mxCell>
        <mxCell id="UodUnR3Mqy-07DbHBFqT-11" value="生成限制条件：&lt;br style=&quot;font-size: 15px;&quot;&gt;source_site:&amp;nbsp;supportE/MCD&lt;br style=&quot;font-size: 15px;&quot;&gt;public_level: [S, A,...]" style="rounded=0;whiteSpace=wrap;html=1;fontSize=15;align=left;fontStyle=1;strokeWidth=2;" parent="1" vertex="1">
          <mxGeometry x="401" y="599.75" width="198" height="72" as="geometry" />
        </mxCell>
        <mxCell id="UodUnR3Mqy-07DbHBFqT-17" style="edgeStyle=orthogonalEdgeStyle;rounded=0;orthogonalLoop=1;jettySize=auto;html=1;entryX=0.5;entryY=0;entryDx=0;entryDy=0;fontSize=15;fontStyle=1;strokeWidth=2;" parent="1" source="UodUnR3Mqy-07DbHBFqT-13" target="UodUnR3Mqy-07DbHBFqT-15" edge="1">
          <mxGeometry relative="1" as="geometry" />
        </mxCell>
        <mxCell id="UodUnR3Mqy-07DbHBFqT-13" value="搜索服务" style="rounded=0;whiteSpace=wrap;html=1;fontSize=15;fontStyle=1;strokeWidth=2;" parent="1" vertex="1">
          <mxGeometry x="43" y="295" width="120" height="60" as="geometry" />
        </mxCell>
        <mxCell id="UodUnR3Mqy-07DbHBFqT-19" style="edgeStyle=orthogonalEdgeStyle;rounded=0;orthogonalLoop=1;jettySize=auto;html=1;entryX=0.5;entryY=0;entryDx=0;entryDy=0;fontSize=15;fontStyle=1;strokeWidth=2;" parent="1" source="UodUnR3Mqy-07DbHBFqT-15" target="UodUnR3Mqy-07DbHBFqT-18" edge="1">
          <mxGeometry relative="1" as="geometry" />
        </mxCell>
        <mxCell id="UodUnR3Mqy-07DbHBFqT-15" value="搜索结果" style="rounded=0;whiteSpace=wrap;html=1;fontSize=15;fontStyle=1;strokeWidth=2;" parent="1" vertex="1">
          <mxGeometry x="43" y="415" width="120" height="60" as="geometry" />
        </mxCell>
        <mxCell id="UodUnR3Mqy-07DbHBFqT-18" value="结束" style="rounded=1;whiteSpace=wrap;html=1;fontSize=15;fontStyle=1;strokeWidth=2;" parent="1" vertex="1">
          <mxGeometry x="43" y="525" width="120" height="60" as="geometry" />
        </mxCell>
        <mxCell id="UodUnR3Mqy-07DbHBFqT-61" style="edgeStyle=orthogonalEdgeStyle;rounded=0;orthogonalLoop=1;jettySize=auto;html=1;entryX=0;entryY=0.5;entryDx=0;entryDy=0;fontSize=15;exitX=0;exitY=0.5;exitDx=0;exitDy=0;fontStyle=1;strokeWidth=2;" parent="1" source="UodUnR3Mqy-07DbHBFqT-24" target="UodUnR3Mqy-07DbHBFqT-26" edge="1">
          <mxGeometry relative="1" as="geometry">
            <Array as="points">
              <mxPoint x="597" y="221" />
              <mxPoint x="597" y="569" />
            </Array>
          </mxGeometry>
        </mxCell>
        <mxCell id="UodUnR3Mqy-07DbHBFqT-66" style="edgeStyle=orthogonalEdgeStyle;rounded=0;orthogonalLoop=1;jettySize=auto;html=1;fontSize=15;fontStyle=1" parent="1" source="UodUnR3Mqy-07DbHBFqT-24" target="UodUnR3Mqy-07DbHBFqT-45" edge="1">
          <mxGeometry relative="1" as="geometry" />
        </mxCell>
        <mxCell id="UodUnR3Mqy-07DbHBFqT-24" value="华为员工？" style="rhombus;whiteSpace=wrap;html=1;fontSize=15;fontStyle=1" parent="1" vertex="1">
          <mxGeometry x="663" y="190.88" width="120" height="60" as="geometry" />
        </mxCell>
        <mxCell id="UodUnR3Mqy-07DbHBFqT-79" style="edgeStyle=orthogonalEdgeStyle;rounded=0;orthogonalLoop=1;jettySize=auto;html=1;fontSize=15;exitX=0.5;exitY=1;exitDx=0;exitDy=0;fontStyle=1;strokeWidth=2;" parent="1" source="UodUnR3Mqy-07DbHBFqT-26" target="UodUnR3Mqy-07DbHBFqT-11" edge="1">
          <mxGeometry relative="1" as="geometry" />
        </mxCell>
        <mxCell id="UodUnR3Mqy-07DbHBFqT-26" value="生成MCD资料&lt;br style=&quot;font-size: 15px;&quot;&gt;public_level限制参数" style="rounded=0;whiteSpace=wrap;html=1;fontSize=15;fontStyle=1;strokeWidth=2;" parent="1" vertex="1">
          <mxGeometry x="663" y="539.75" width="120" height="60" as="geometry" />
        </mxCell>
        <mxCell id="UodUnR3Mqy-07DbHBFqT-80" style="edgeStyle=orthogonalEdgeStyle;rounded=0;orthogonalLoop=1;jettySize=auto;html=1;entryX=0.5;entryY=0;entryDx=0;entryDy=0;fontSize=15;fontStyle=1;strokeWidth=2;" parent="1" source="UodUnR3Mqy-07DbHBFqT-27" target="UodUnR3Mqy-07DbHBFqT-11" edge="1">
          <mxGeometry relative="1" as="geometry" />
        </mxCell>
        <mxCell id="UodUnR3Mqy-07DbHBFqT-27" value="生成support-e资料&lt;br style=&quot;font-size: 15px;&quot;&gt;public_level限制参数" style="rounded=0;whiteSpace=wrap;html=1;fontSize=15;fontStyle=1;strokeWidth=2;" parent="1" vertex="1">
          <mxGeometry x="431" y="479.75" width="137" height="60" as="geometry" />
        </mxCell>
        <mxCell id="UodUnR3Mqy-07DbHBFqT-69" style="edgeStyle=orthogonalEdgeStyle;rounded=0;orthogonalLoop=1;jettySize=auto;html=1;entryX=0.5;entryY=0;entryDx=0;entryDy=0;fontSize=15;fontStyle=1;strokeWidth=2;" parent="1" source="UodUnR3Mqy-07DbHBFqT-45" target="UodUnR3Mqy-07DbHBFqT-63" edge="1">
          <mxGeometry relative="1" as="geometry" />
        </mxCell>
        <mxCell id="UodUnR3Mqy-07DbHBFqT-45" value="调MCD接口查伙伴权限" style="rounded=0;whiteSpace=wrap;html=1;fontSize=15;fontStyle=1" parent="1" vertex="1">
          <mxGeometry x="663" y="270" width="120" height="60" as="geometry" />
        </mxCell>
        <mxCell id="UodUnR3Mqy-07DbHBFqT-59" style="edgeStyle=orthogonalEdgeStyle;rounded=0;orthogonalLoop=1;jettySize=auto;html=1;fontSize=15;fontStyle=1;strokeWidth=2;" parent="1" source="UodUnR3Mqy-07DbHBFqT-50" target="UodUnR3Mqy-07DbHBFqT-58" edge="1">
          <mxGeometry relative="1" as="geometry" />
        </mxCell>
        <mxCell id="UodUnR3Mqy-07DbHBFqT-50" value="调support-e接口&lt;br style=&quot;font-size: 15px;&quot;&gt;查用户角色" style="rounded=0;whiteSpace=wrap;html=1;fontSize=15;fontStyle=1" parent="1" vertex="1">
          <mxGeometry x="440" y="274.75" width="120" height="60" as="geometry" />
        </mxCell>
        <mxCell id="UodUnR3Mqy-07DbHBFqT-60" style="edgeStyle=orthogonalEdgeStyle;rounded=0;orthogonalLoop=1;jettySize=auto;html=1;entryX=0.5;entryY=0;entryDx=0;entryDy=0;fontSize=15;fontStyle=1;strokeWidth=2;" parent="1" source="UodUnR3Mqy-07DbHBFqT-58" target="UodUnR3Mqy-07DbHBFqT-27" edge="1">
          <mxGeometry relative="1" as="geometry" />
        </mxCell>
        <mxCell id="UodUnR3Mqy-07DbHBFqT-58" value="查角色-权限映射表" style="rounded=0;whiteSpace=wrap;html=1;fontSize=15;fontStyle=1" parent="1" vertex="1">
          <mxGeometry x="440" y="379.75" width="120" height="60" as="geometry" />
        </mxCell>
        <mxCell id="UodUnR3Mqy-07DbHBFqT-71" style="edgeStyle=orthogonalEdgeStyle;rounded=0;orthogonalLoop=1;jettySize=auto;html=1;entryX=0;entryY=0.5;entryDx=0;entryDy=0;fontSize=15;exitX=0;exitY=0.5;exitDx=0;exitDy=0;fontStyle=1;strokeWidth=2;" parent="1" source="UodUnR3Mqy-07DbHBFqT-63" target="UodUnR3Mqy-07DbHBFqT-26" edge="1">
          <mxGeometry relative="1" as="geometry">
            <Array as="points">
              <mxPoint x="597" y="390" />
              <mxPoint x="597" y="569" />
            </Array>
          </mxGeometry>
        </mxCell>
        <mxCell id="UodUnR3Mqy-07DbHBFqT-72" value="是" style="edgeLabel;html=1;align=center;verticalAlign=middle;resizable=0;points=[];fontSize=15;fontStyle=1" parent="UodUnR3Mqy-07DbHBFqT-71" vertex="1" connectable="0">
          <mxGeometry x="-0.2348" y="-2" relative="1" as="geometry">
            <mxPoint as="offset" />
          </mxGeometry>
        </mxCell>
        <mxCell id="UodUnR3Mqy-07DbHBFqT-74" style="edgeStyle=orthogonalEdgeStyle;rounded=0;orthogonalLoop=1;jettySize=auto;html=1;fontSize=15;entryX=0.5;entryY=0;entryDx=0;entryDy=0;fontStyle=1;strokeWidth=2;" parent="1" source="UodUnR3Mqy-07DbHBFqT-63" target="UodUnR3Mqy-07DbHBFqT-76" edge="1">
          <mxGeometry relative="1" as="geometry">
            <mxPoint x="723" y="463.88" as="targetPoint" />
          </mxGeometry>
        </mxCell>
        <mxCell id="UodUnR3Mqy-07DbHBFqT-75" value="否" style="edgeLabel;html=1;align=center;verticalAlign=middle;resizable=0;points=[];fontSize=15;fontStyle=1" parent="UodUnR3Mqy-07DbHBFqT-74" vertex="1" connectable="0">
          <mxGeometry x="0.2389" y="2" relative="1" as="geometry">
            <mxPoint as="offset" />
          </mxGeometry>
        </mxCell>
        <mxCell id="UodUnR3Mqy-07DbHBFqT-63" value="伙伴？" style="rhombus;whiteSpace=wrap;html=1;fontSize=15;fontStyle=1;strokeWidth=2;" parent="1" vertex="1">
          <mxGeometry x="663" y="359.88" width="120" height="60" as="geometry" />
        </mxCell>
        <mxCell id="UodUnR3Mqy-07DbHBFqT-68" value="否" style="text;html=1;strokeColor=none;fillColor=none;align=center;verticalAlign=middle;whiteSpace=wrap;rounded=0;fontSize=15;fontStyle=1" parent="1" vertex="1">
          <mxGeometry x="728" y="244.75" width="60" height="30" as="geometry" />
        </mxCell>
        <mxCell id="UodUnR3Mqy-07DbHBFqT-77" style="edgeStyle=orthogonalEdgeStyle;rounded=0;orthogonalLoop=1;jettySize=auto;html=1;entryX=0.5;entryY=0;entryDx=0;entryDy=0;fontSize=15;fontStyle=1;strokeWidth=2;" parent="1" source="UodUnR3Mqy-07DbHBFqT-76" target="UodUnR3Mqy-07DbHBFqT-26" edge="1">
          <mxGeometry relative="1" as="geometry" />
        </mxCell>
        <mxCell id="UodUnR3Mqy-07DbHBFqT-76" value="定义为游客" style="rounded=0;whiteSpace=wrap;html=1;fontSize=15;fontStyle=1;strokeWidth=2;" parent="1" vertex="1">
          <mxGeometry x="663" y="454" width="120" height="60" as="geometry" />
        </mxCell>
        <mxCell id="UodUnR3Mqy-07DbHBFqT-83" style="edgeStyle=orthogonalEdgeStyle;rounded=0;orthogonalLoop=1;jettySize=auto;html=1;entryX=0.5;entryY=0;entryDx=0;entryDy=0;fontSize=15;fontStyle=1;strokeWidth=2;" parent="1" edge="1">
          <mxGeometry relative="1" as="geometry">
            <mxPoint x="163" y="225" as="sourcePoint" />
            <mxPoint x="500" y="133" as="targetPoint" />
            <Array as="points">
              <mxPoint x="248" y="225" />
              <mxPoint x="248" y="113" />
              <mxPoint x="500" y="113" />
            </Array>
          </mxGeometry>
        </mxCell>
        <mxCell id="UodUnR3Mqy-07DbHBFqT-84" value="华为员工？" style="rhombus;whiteSpace=wrap;html=1;fontSize=15;fontStyle=1;strokeWidth=2;" parent="1" vertex="1">
          <mxGeometry x="663" y="190.88" width="120" height="60" as="geometry" />
        </mxCell>
        <mxCell id="UodUnR3Mqy-07DbHBFqT-85" value="调support-e接口&lt;br style=&quot;font-size: 15px;&quot;&gt;查用户角色" style="rounded=0;whiteSpace=wrap;html=1;fontSize=15;fontStyle=1;strokeWidth=2;" parent="1" vertex="1">
          <mxGeometry x="440" y="274.75" width="120" height="60" as="geometry" />
        </mxCell>
        <mxCell id="UodUnR3Mqy-07DbHBFqT-86" value="调MCD接口查伙伴权限" style="rounded=0;whiteSpace=wrap;html=1;fontSize=15;fontStyle=1;strokeWidth=2;" parent="1" vertex="1">
          <mxGeometry x="663" y="270" width="120" height="60" as="geometry" />
        </mxCell>
        <mxCell id="UodUnR3Mqy-07DbHBFqT-87" value="查角色-权限映射表" style="rounded=0;whiteSpace=wrap;html=1;fontSize=15;fontStyle=1;strokeWidth=2;" parent="1" vertex="1">
          <mxGeometry x="440" y="379.75" width="120" height="60" as="geometry" />
        </mxCell>
        <mxCell id="UodUnR3Mqy-07DbHBFqT-88" style="edgeStyle=orthogonalEdgeStyle;rounded=0;orthogonalLoop=1;jettySize=auto;html=1;fontSize=15;fontStyle=1" parent="1" edge="1">
          <mxGeometry relative="1" as="geometry">
            <mxPoint x="722.5" y="250.3" as="sourcePoint" />
            <mxPoint x="722.5" y="269.3" as="targetPoint" />
          </mxGeometry>
        </mxCell>
      </root>
    </mxGraphModel>
  </diagram>
</mxfile>
